<svg id="图层_1" data-name="图层 1" xmlns="http://www.w3.org/2000/svg" xmlns:xlink="http://www.w3.org/1999/xlink" viewBox="0 0 1920 1920"><defs><style>.cls-1{fill:url(#未命名的渐变_31);}.cls-2{fill:#fff;}.cls-3{fill:url(#未命名的渐变_31-2);}</style><linearGradient id="未命名的渐变_31" x1="360" y1="960" x2="747.49" y2="960" gradientUnits="userSpaceOnUse"><stop offset="0" stop-color="#c242db"/><stop offset="1" stop-color="#2e18ad"/></linearGradient><linearGradient id="未命名的渐变_31-2" x2="1560" xlink:href="#未命名的渐变_31"/></defs><title>ASF 渐变</title><polygon class="cls-1" points="622.86 1041.99 747.49 1041.99 590.55 734.01 410.97 1086.43 360 1185.99 484.65 1185.99 525.69 1105.84 590.55 978.65 622.86 1041.99"/><path class="cls-2" d="M857.22,759.65c-68.58,0-124.37,56-124.37,124.92v2.2a122.86,122.86,0,0,0,21.67,70.49,117.22,117.22,0,0,0,15.82,19.68l.22.22a123.74,123.74,0,0,0,86.66,35.07H995.88a31.57,31.57,0,0,1,31.31,31.3,31.73,31.73,0,0,1-31.31,31.3l-408,1.09-54.8,109.59H999.8c.56-.12,1.37-.3,2.33-.53,58.17-13.72,131.93-67.61,135.66-140.52,2-40.05-17.72-72.58-32-91l-.75-1-.86-.85c-.15-.15-.58-.67-.89-1-.76-.92-1.78-2.14-3.08-3.48a142.35,142.35,0,0,0-104.83-46.12H857.22a13.94,13.94,0,0,1-13.76-13.75v-2.2a14,14,0,0,1,13.81-13.75l646.85-1.55L1560,760.16Z"/><path class="cls-2" d="M1162.48,1028.1v157.41h110.86l.31-157.41a13.94,13.94,0,0,1,13.75-13.76h143.08l56.64-111.17H1286.85C1218.27,903.17,1162.48,959.21,1162.48,1028.1Z"/><polygon class="cls-3" points="622.86 1041.99 747.49 1041.99 590.55 734.01 410.97 1086.43 360 1185.99 484.65 1185.99 525.69 1105.84 590.55 978.65 622.86 1041.99"/><path class="cls-3" d="M857.22,759.65c-68.58,0-124.37,56-124.37,124.92v2.2a122.86,122.86,0,0,0,21.67,70.49,117.22,117.22,0,0,0,15.82,19.68l.22.22a123.74,123.74,0,0,0,86.66,35.07H995.88a31.57,31.57,0,0,1,31.31,31.3,31.73,31.73,0,0,1-31.31,31.3l-408,1.09-54.8,109.59H999.8c.56-.12,1.37-.3,2.33-.53,58.17-13.72,131.93-67.61,135.66-140.52,2-40.05-17.72-72.58-32-91l-.75-1-.86-.85c-.15-.15-.58-.67-.89-1-.76-.92-1.78-2.14-3.08-3.48a142.35,142.35,0,0,0-104.83-46.12H857.22a13.94,13.94,0,0,1-13.76-13.75v-2.2a14,14,0,0,1,13.81-13.75l646.85-1.55L1560,760.16Z"/><path class="cls-3" d="M1162.48,1028.1v157.41h110.86l.31-157.41a13.94,13.94,0,0,1,13.75-13.76h143.08l56.64-111.17H1286.85C1218.27,903.17,1162.48,959.21,1162.48,1028.1Z"/></svg>